<svg xmlns="http://www.w3.org/2000/svg" width="12.926" height="10.156" viewBox="0 0 12.926 10.156"><defs><style>.a{fill:#a88663;}</style></defs><path class="a" d="M14.547,14.625h-.012a.63.63,0,0,0-.629.629.064.064,0,0,1-.063.063H3.583a.064.064,0,0,1-.063-.063.63.63,0,0,0-.629-.629H2.879a.63.63,0,0,0-.629.629v5.2a.63.63,0,0,0,.629.629h.012a.63.63,0,0,0,.629-.629V20.28a.116.116,0,0,1,.115-.115H13.791a.116.116,0,0,1,.115.115v.179a.63.63,0,0,0,.629.629h.012a.63.63,0,0,0,.629-.629v-5.2A.63.63,0,0,0,14.547,14.625Z" transform="translate(-2.25 -10.932)"/><path class="a" d="M5.575,9.491h.649a.116.116,0,0,0,.115-.115V9A.463.463,0,0,1,6.8,8.539H9.614A.463.463,0,0,1,10.075,9v.375a.116.116,0,0,0,.115.115h.692A.116.116,0,0,0,11,9.376V9a.463.463,0,0,1,.462-.462h2.813A.463.463,0,0,1,14.735,9v.375a.116.116,0,0,0,.115.115H15.5a.231.231,0,0,0,.231-.231V6.548a.926.926,0,0,0-.923-.923H6.267a.926.926,0,0,0-.923.923V9.26A.231.231,0,0,0,5.575,9.491Z" transform="translate(-4.074 -5.625)"/></svg>