<svg xmlns="http://www.w3.org/2000/svg" width="127.108" height="109.024" viewBox="0 0 127.108 109.024"><defs><style>.a{fill:#fff;}</style></defs><g transform="translate(-143.183 -152.178)"><g transform="translate(143.183 152.178)"><path class="a" d="M162.511,152.178v56.945h8.866v1.118h-24.6v-1.118h8.865V158.488c-1.038.719-2,1.358-2.716,1.757l-9.1,5.191-.639-1.038c6.789-3.833,12.7-7.108,17.731-12.22Z" transform="translate(-143.183 -152.178)"/><path class="a" d="M248.3,211.359c-12.22,0-18.689-11.022-18.689-29.63,0-18.529,6.469-29.551,18.689-29.551,12.3,0,18.689,11.181,18.689,29.551C266.99,200.338,260.521,211.359,248.3,211.359ZM237.6,184.2c0,11.66,1.118,16.772,2.316,20.046,1.437,3.914,4.233,5.99,8.306,5.99,7.508,0,10.782-5.191,10.782-27.954,0-12.22-.8-19.248-2.316-22.922-1.677-4.073-3.993-6.07-8.466-6.07-3.993,0-6.789,2-8.226,5.83C237.918,164.637,237.6,171.825,237.6,184.2Z" transform="translate(-192.314 -152.178)"/></g><g transform="translate(191.542 202.021)"><path class="a" d="M272.576,293.156v.159c10.382.639,17.65,7.428,17.65,16.134,0,9.1-8.306,17.411-19.168,17.411-9.1,0-14.456-4.712-15.813-12.459l1.118-.24c1.2,7.108,6.23,11.581,14.456,11.581,8.546,0,11.661-5.91,11.661-17.012,0-10.223-3.754-14.536-10.7-14.536a15.517,15.517,0,0,0-9.424,3.114l-.719-1.278a35.61,35.61,0,0,1,8.067-2.875c7.827-2.157,11.261-6.629,11.261-14.856,0-6.149-2.8-9.5-8.226-9.5-5.591,0-8.466,2.8-8.466,5.67,0,2.8,1.358,3.994,1.358,5.192,0,1.917-1.517,2.556-3.354,2.556-2.316,0-3.514-1.2-3.514-3.434,0-4.153,4.552-11.1,14.456-11.1,9.744,0,15.095,6.23,15.095,12.3C288.31,286.926,280.483,291.319,272.576,293.156Z" transform="translate(-255.245 -267.678)"/><path class="a" d="M369.8,326.859c-12.219,0-18.689-11.022-18.689-29.631,0-18.529,6.47-29.551,18.689-29.551,12.3,0,18.689,11.181,18.689,29.551C388.49,315.838,382.021,326.859,369.8,326.859ZM359.1,299.7c0,11.66,1.119,16.772,2.316,20.046,1.438,3.913,4.233,5.99,8.306,5.99,7.508,0,10.782-5.191,10.782-27.953,0-12.22-.8-19.248-2.316-22.922-1.677-4.073-3.993-6.07-8.466-6.07-3.993,0-6.789,2-8.226,5.83C359.418,280.137,359.1,287.325,359.1,299.7Z" transform="translate(-309.741 -267.678)"/></g><g transform="translate(153.535 220.791)"><rect class="a" width="49.943" height="1.726" transform="translate(0 34.864) rotate(-44.273)"/></g><g transform="translate(222.366 153.686)"><rect class="a" width="49.943" height="1.726" transform="translate(0 34.864) rotate(-44.273)"/></g></g></svg>